<?xml version="1.0" encoding="utf-8"?>
<!-- Generator: Adobe Illustrator 16.0.0, SVG Export Plug-In . SVG Version: 6.00 Build 0)  -->
<!DOCTYPE svg PUBLIC "-//W3C//DTD SVG 1.1//EN" "http://www.w3.org/Graphics/SVG/1.1/DTD/svg11.dtd">
<svg version="1.1" id="Layer_3" xmlns="http://www.w3.org/2000/svg" xmlns:xlink="http://www.w3.org/1999/xlink" x="0px" y="0px"
	 width="801.625px" height="107.504px" viewBox="0 0 801.625 107.504" enable-background="new 0 0 801.625 107.504"
	 xml:space="preserve">
<g>
	<g>
		<g>
			<polygon fill="#FFFFFF" stroke="#FFFFFF" stroke-width="3" stroke-linecap="round" stroke-linejoin="round" points="
				51.423,37.033 58.893,29.562 49.83,34.642 64.87,19.602 47.638,29.861 54.312,23.187 44.849,28.666 53.714,19.801 20.545,45.997 
				20.545,9.342 18.553,27.072 17.159,13.525 15.963,27.869 14.17,19.502 12.776,25.876 11.581,3.167 9.588,25.08 8.194,12.529 
				6.799,23.884 5.803,16.314 4.409,22.689 2.417,15.119 2.417,97.594 4.209,87.434 5.206,94.805 8.194,86.04 8.194,103.57 
				11.182,86.238 11.182,94.407 13.573,88.43 15.366,104.965 16.362,85.441 17.557,93.609 18.553,85.243 20.545,92.415 
				20.545,66.715 23.877,63.922 43.654,96.997 41.462,87.833 48.634,95.004 43.853,85.043 56.403,100.583 46.841,82.652 
				51.423,87.234 49.63,81.657 58.793,89.295 54.013,82.254 35.764,53.959 62.379,31.654 			"/>
			<polygon fill="#FFFFFF" stroke="#FFFFFF" stroke-width="3" stroke-linecap="round" stroke-linejoin="round" points="73.7,14.389 
				73.7,95.668 76.09,85.045 77.684,93.811 79.145,84.181 79.942,90.488 81.136,84.313 83.062,100.184 84.789,84.313 85.984,88.297 
				87.445,84.579 89.57,92.747 89.57,13.659 87.91,25.545 86.117,18.374 85.187,23.819 83.527,7.947 82.266,24.083 81.203,18.971 
				80.274,22.756 78.613,10.405 77.086,22.026 76.29,16.381 75.227,19.37 			"/>
			<polyline fill="#FFFFFF" stroke="#FFFFFF" stroke-width="3" stroke-linecap="round" stroke-linejoin="round" points="
				103.18,20.931 103.18,95.436 104.774,88.663 106.235,97.694 108.625,84.28 110.086,94.374 111.149,89.062 112.875,103.936 
				114.736,84.28 115.666,90.788 116.861,84.148 118.189,90.655 119.251,83.881 120.58,94.905 120.58,62.499 147.541,89.991 
				147.541,12.165 145.547,24.783 143.954,16.548 142.758,22.392 140.766,4.197 139.04,22.791 137.313,15.751 136.383,23.321 
				135.188,18.142 134.125,21.329 131.204,9.244 131.204,48.555 103.579,20.532 			"/>
			<path fill="#FFFFFF" stroke="#FFFFFF" stroke-width="3" stroke-linecap="round" stroke-linejoin="round" d="M190.209,49.161
				h22.045c0,0,5.91,36.322-20.286,38.214c0,0-30.779,4.084-30.779-33.767c0,0-2.29-32.97,27.891-32.97
				c0,0,15.937-0.996,23.208,15.837l-5.877-4.084l6.773,11.455l-9.612-9.612l2.839,7.221l-4.482-4.482l1.893,5.179l-4.831-4.831
				l0.548,3.436l-2.291-2.291l1.793,5.179c0,0-4.98-8.765-11.853-8.765c0,0-9.861-0.697-9.861,18.726
				c0,0-0.697,18.526,11.455,18.526c0,0,10.01-0.797,10.01-10.012h-6.822l5.079-1.045l-9.761-1.195l12.351-1.594l-9.362-0.996
				l6.175-0.896l-8.765-1.692l9.163-0.599l-6.175-1.893l4.481-1.494L190.209,49.161z"/>
		</g>
		<g>
			<polygon fill="#FFFFFF" points="51.423,37.033 58.893,29.562 49.83,34.642 64.87,19.602 47.638,29.861 54.312,23.187 
				44.849,28.666 53.714,19.801 20.545,45.997 20.545,9.342 18.553,27.072 17.159,13.525 15.963,27.869 14.17,19.502 12.776,25.876 
				11.581,3.167 9.588,25.08 8.194,12.529 6.799,23.884 5.803,16.314 4.409,22.689 2.417,15.119 2.417,97.594 4.209,87.434 
				5.206,94.805 8.194,86.04 8.194,103.57 11.182,86.238 11.182,94.407 13.573,88.43 15.366,104.965 16.362,85.441 17.557,93.609 
				18.553,85.243 20.545,92.415 20.545,66.715 23.877,63.922 43.654,96.997 41.462,87.833 48.634,95.004 43.853,85.043 
				56.403,100.583 46.841,82.652 51.423,87.234 49.63,81.657 58.793,89.295 54.013,82.254 35.764,53.959 62.379,31.654 			"/>
			<polygon fill="#FFFFFF" points="73.7,14.389 73.7,95.668 76.09,85.045 77.684,93.811 79.145,84.181 79.942,90.488 81.136,84.313 
				83.062,100.184 84.789,84.313 85.984,88.297 87.445,84.579 89.57,92.747 89.57,13.659 87.91,25.545 86.117,18.374 85.187,23.819 
				83.527,7.947 82.266,24.083 81.203,18.971 80.274,22.756 78.613,10.405 77.086,22.026 76.29,16.381 75.227,19.37 			"/>
			<polyline fill="#FFFFFF" points="103.18,20.931 103.18,95.436 104.774,88.663 106.235,97.694 108.625,84.28 110.086,94.374 
				111.149,89.062 112.875,103.936 114.736,84.28 115.666,90.788 116.861,84.148 118.189,90.655 119.251,83.881 120.58,94.905 
				120.58,62.499 147.541,89.991 147.541,12.165 145.547,24.783 143.954,16.548 142.758,22.392 140.766,4.197 139.04,22.791 
				137.313,15.751 136.383,23.321 135.188,18.142 134.125,21.329 131.204,9.244 131.204,48.555 103.579,20.532 			"/>
			<path fill="#FFFFFF" d="M190.209,49.161h22.045c0,0,5.91,36.322-20.286,38.214c0,0-30.779,4.084-30.779-33.767
				c0,0-2.29-32.97,27.891-32.97c0,0,15.937-0.996,23.208,15.837l-5.877-4.084l6.773,11.455l-9.612-9.612l2.839,7.221l-4.482-4.482
				l1.893,5.179l-4.831-4.831l0.548,3.436l-2.291-2.291l1.793,5.179c0,0-4.98-8.765-11.853-8.765c0,0-9.861-0.697-9.861,18.726
				c0,0-0.697,18.526,11.455,18.526c0,0,10.01-0.797,10.01-10.012h-6.822l5.079-1.045l-9.761-1.195l12.351-1.594l-9.362-0.996
				l6.175-0.896l-8.765-1.692l9.163-0.599l-6.175-1.893l4.481-1.494L190.209,49.161z"/>
		</g>
	</g>
	<g>
		<g>
			<polyline fill="#FFFFFF" stroke="#FFFFFF" stroke-width="3" stroke-linecap="round" stroke-linejoin="round" points="
				388.272,20.93 388.272,95.435 389.866,88.663 391.327,97.694 393.717,84.28 395.178,94.372 396.24,89.062 397.967,103.935 
				399.826,84.28 400.756,90.786 401.952,84.147 403.28,90.653 404.342,83.881 405.668,94.905 405.668,62.499 432.631,89.989 
				432.631,12.165 430.639,24.782 429.045,16.547 427.85,22.391 425.858,4.196 424.129,22.79 422.403,15.75 421.475,23.32 
				420.28,18.141 419.215,21.328 416.295,9.243 416.295,48.553 388.67,20.531 			"/>
			<path fill="#FFFFFF" stroke="#FFFFFF" stroke-width="3" stroke-linecap="round" stroke-linejoin="round" d="M364.704,24.541
				c-6.705-4.317-13.428-3.903-13.428-3.903c-30.181,0-27.89,32.97-27.89,32.97c0,37.852,30.778,33.768,30.778,33.768
				c15.145-1.094,20.442-10.857,21.469-23.242C375.633,64.131,381.1,36.076,364.704,24.541z M360.554,65.028
				c-1.847,6.447-9.577,7.105-9.577,7.105c-12.152,0-11.455-18.527-11.455-18.527c0-19.423,9.861-18.726,9.861-18.726
				c2.132-0.579,3.979,0.46,5.301,1.152c0,0,7.172,3.231,7.172,13.59c0,0,1.36,7.943-1.112,14.73
				C360.653,64.599,360.595,64.819,360.554,65.028z"/>
			<polygon fill="#FFFFFF" stroke="#FFFFFF" stroke-width="3" stroke-linecap="round" stroke-linejoin="round" points="
				481.18,77.84 488.6,76.51 478.883,74.948 487.172,72.79 460.329,72.79 460.329,61.304 477.211,61.304 468.922,59.146 
				478.639,57.584 471.219,56.254 481.446,54.265 469.292,53.204 476.1,51.179 470.303,49.609 478.391,48.256 472.208,47.26 
				476.827,45.898 460.329,45.898 460.329,35.338 480.846,35.338 489.083,35.206 481.813,32.75 488.417,30.358 478.256,28.764 
				491.407,26.971 481.18,24.982 488.6,23.652 477.926,22.091 487.159,19.932 444.395,19.932 444.395,88.196 486.788,88.196 
				482.167,86.834 488.354,85.838 480.264,84.487 486.063,82.917 479.252,80.892 491.407,79.829 			"/>
			<path fill="#FFFFFF" stroke="#FFFFFF" stroke-width="3" stroke-linecap="round" stroke-linejoin="round" d="M316.363,67.073
				c0-16.869-12.617-21.516-12.617-21.516c6.641-2.391,7.039-11.289,7.039-11.289c-0.531-17.033-24.569-14.608-24.569-14.608
				h-33.231l4.619,1.362l-6.184,0.996l8.087,1.353l-5.796,1.57l6.806,2.025l-12.152,1.062l10.227,1.989l-7.421,1.331l9.718,1.561
				l-8.291,2.159h15.821v38.115h-13.431l8.291,2.157l-9.718,1.563l7.421,1.33l-10.227,1.988l12.152,1.063l-6.806,2.022l5.796,1.569
				l-8.087,1.354l6.184,0.996l-4.619,1.36h30.84C317.057,88.588,316.363,67.073,316.363,67.073z M286.216,45.753V34.875
				C300.486,34.341,291.506,41.968,286.216,45.753z M300.294,64.683c0,6.131-7.309,8.129-14.078,8.661V56.726
				C301.353,56.5,300.294,64.683,300.294,64.683z"/>
		</g>
		<g>
			<polyline fill="#FFFFFF" points="388.272,20.93 388.272,95.435 389.866,88.663 391.327,97.694 393.717,84.28 395.178,94.372 
				396.24,89.062 397.967,103.935 399.826,84.28 400.756,90.786 401.952,84.147 403.28,90.653 404.342,83.881 405.668,94.905 
				405.668,62.499 432.631,89.989 432.631,12.165 430.639,24.782 429.045,16.547 427.85,22.391 425.858,4.196 424.129,22.79 
				422.403,15.75 421.475,23.32 420.28,18.141 419.215,21.328 416.295,9.243 416.295,48.553 388.67,20.531 			"/>
			<path fill="#FFFFFF" d="M364.704,24.541c-6.705-4.317-13.428-3.903-13.428-3.903c-30.181,0-27.89,32.97-27.89,32.97
				c0,37.852,30.778,33.768,30.778,33.768c15.145-1.094,20.441-10.857,21.469-23.242C375.633,64.131,381.1,36.077,364.704,24.541z
				 M360.553,65.028c-1.846,6.447-9.576,7.105-9.576,7.105c-12.152,0-11.455-18.527-11.455-18.527
				c0-19.423,9.861-18.726,9.861-18.726c2.131-0.58,3.979,0.46,5.301,1.151c0,0,7.172,3.231,7.172,13.59
				c0,0,1.359,7.943-1.113,14.73C360.653,64.599,360.594,64.819,360.553,65.028z"/>
			<polygon fill="#FFFFFF" points="481.18,77.84 488.6,76.51 478.883,74.948 487.172,72.79 460.329,72.79 460.329,61.304 
				477.211,61.304 468.922,59.146 478.639,57.584 471.219,56.254 481.446,54.265 469.292,53.204 476.1,51.179 470.303,49.608 
				478.391,48.256 472.208,47.26 476.827,45.899 460.329,45.899 460.329,35.338 480.846,35.338 489.083,35.206 481.813,32.75 
				488.417,30.358 478.256,28.764 491.407,26.971 481.18,24.982 488.6,23.652 477.926,22.091 487.159,19.932 444.395,19.932 
				444.395,88.196 486.788,88.196 482.167,86.834 488.354,85.838 480.264,84.487 486.063,82.917 479.252,80.892 491.407,79.829 			
				"/>
			<path fill="#FFFFFF" d="M316.363,67.073c0-16.869-12.616-21.516-12.616-21.516c6.642-2.391,7.038-11.288,7.038-11.288
				c-0.531-17.033-24.568-14.608-24.568-14.608h-33.231l4.619,1.362l-6.184,0.996l8.087,1.353l-5.796,1.57l6.806,2.025
				l-12.151,1.062l10.227,1.989l-7.421,1.331l9.719,1.561l-8.291,2.158h15.82v38.116h-13.43l8.291,2.158l-9.719,1.563l7.421,1.33
				l-10.228,1.988l12.152,1.063l-6.806,2.023l5.796,1.57l-8.087,1.354l6.184,0.996l-4.619,1.361h30.841
				C317.056,88.588,316.363,67.073,316.363,67.073z M286.216,45.753V34.875C300.486,34.34,291.505,41.968,286.216,45.753z
				 M300.294,64.683c0,6.131-7.309,8.129-14.078,8.661V56.726C301.353,56.5,300.294,64.683,300.294,64.683z"/>
		</g>
	</g>
	<polygon fill="#FFFFFF" stroke="#FFFFFF" stroke-width="3" stroke-linecap="round" stroke-linejoin="round" points="
		670.637,77.842 678.057,76.51 668.34,74.95 676.631,72.792 649.79,72.792 649.79,61.306 666.67,61.306 658.379,59.147 
		668.098,57.586 660.676,56.254 670.905,54.266 658.75,53.205 665.557,51.18 659.762,49.61 667.848,48.257 661.667,47.261 
		666.286,45.9 649.79,45.9 649.79,35.339 670.305,35.339 678.542,35.208 671.272,32.751 677.875,30.359 667.715,28.765 
		680.866,26.973 670.637,24.984 678.057,23.653 667.385,22.092 676.616,19.933 633.854,19.933 633.854,88.198 676.247,88.198 
		671.625,86.836 677.809,85.84 669.721,84.487 675.518,82.917 668.711,80.892 680.866,79.831 	"/>
	<path fill="#FFFFFF" stroke="#FFFFFF" stroke-width="3" stroke-linecap="round" stroke-linejoin="round" d="M569.549,35.512
		c-0.598-20.12-27.094-17.731-27.094-17.731v-0.089h-15.869v76.232l2.391-10.623l1.596,8.767l1.461-9.629l0.797,6.308l1.195-6.174
		l1.924,15.868l1.727-15.868l1.195,3.983l1.461-3.72l2.125,8.168V57.083C572.081,54.965,569.549,35.512,569.549,35.512z
		 M554.112,35.512c0,5.604-7.084,7.816-11.654,8.663V29.813C554.399,29.739,554.112,35.512,554.112,35.512z"/>
	<path fill="#FFFFFF" stroke="#FFFFFF" stroke-width="3" stroke-linecap="round" stroke-linejoin="round" d="M620.124,78.165
		l3.111,2.76l-0.713-3.93l6.104,5.828L609.821,52.42c11.688-6.371,10.279-17.257,10.279-17.257
		c-0.529-17.944-21.648-17.985-26.215-17.782v-0.038h-15.869v75.732l1.658-11.885l1.793,7.172l0.934-5.447l1.656,15.873
		l1.264-16.137l1.063,5.113l0.93-3.785l1.658,12.352l1.527-11.623l0.797,5.646l1.064-2.988l1.525,4.98V56.831l22.781,36.826
		l-3.557-10.293l5.967,6.615l-3.824-8.957l3.996,4.945l-2.232-5.881l9.986,12.483L620.124,78.165z M604.665,35.164
		c0,5.256-6.23,7.526-10.777,8.488V29.474C604.924,29.684,604.665,35.164,604.665,35.164z"/>
	<path fill="#FFFFFF" stroke="#FFFFFF" stroke-width="3" stroke-linecap="round" stroke-linejoin="round" d="M729.917,23.152
		c0,0-26.563-14.609-30.281,5.312c0,0-4.779,9.032,9.564,27.361c0,0,13.811,17.264,1.594,15.141c0,0-11.953-1.064-19.125-15.406
		c0,0,2.656,9.826,7.172,14.342l-7.436-6.904c0,0,1.061,3.451,6.902,9.295l-9.029-4.781l3.984,3.984c0,0-3.32-0.396-8.768-5.842
		c0,0,2.123,6.377,10.492,10.492l-8.369-4.115l4.781,4.781l-8.498-4.781c0,0,26.695,30.943,45.688,11.951
		c0,0,11.688-11.953-3.453-31.344c0,0-16.732-20.452-7.703-20.452c0,0,7.57,0.131,16.734,13.015l-4.516-8.499
		c0,0,8.5,3.72,11.953,9.562c0,0-6.771-11.553-11.688-14.077l7.969,5.578l-3.986-6.375l4.914,4.914l-2.523-6.243l5.049,2.391
		C741.338,32.448,733.575,24.889,729.917,23.152z"/>
	<path fill="#FFFFFF" stroke="#FFFFFF" stroke-width="3" stroke-linecap="round" stroke-linejoin="round" d="M787.469,23.152
		c0,0-26.563-14.609-30.277,5.312c0,0-4.781,9.032,9.561,27.361c0,0,13.813,17.264,1.594,15.141c0,0-11.951-1.064-19.123-15.406
		c0,0,2.656,9.826,7.172,14.342l-7.438-6.904c0,0,1.063,3.451,6.906,9.295l-9.031-4.781l3.984,3.984c0,0-3.32-0.396-8.768-5.842
		c0,0,2.123,6.377,10.49,10.492l-8.367-4.115l4.781,4.781l-8.498-4.781c0,0,26.693,30.943,45.686,11.951
		c0,0,11.689-11.953-3.451-31.344c0,0-16.734-20.452-7.701-20.452c0,0,7.566,0.131,16.73,13.015l-4.514-8.499
		c0,0,8.5,3.72,11.953,9.562c0,0-6.773-11.553-11.688-14.077l7.969,5.578l-3.986-6.375l4.914,4.914l-2.523-6.243l5.047,2.391
		C798.891,32.448,791.127,24.889,787.469,23.152z"/>
	<polygon fill="#FFFFFF" points="670.637,77.842 678.057,76.51 668.34,74.95 676.631,72.792 649.79,72.792 649.79,61.306 
		666.67,61.306 658.379,59.147 668.098,57.586 660.676,56.254 670.905,54.266 658.75,53.205 665.557,51.18 659.762,49.61 
		667.848,48.257 661.667,47.261 666.286,45.9 649.79,45.9 649.79,35.339 670.305,35.339 678.542,35.208 671.272,32.751 
		677.875,30.359 667.715,28.765 680.866,26.973 670.637,24.984 678.057,23.653 667.385,22.092 676.616,19.933 633.854,19.933 
		633.854,88.198 676.247,88.198 671.625,86.836 677.809,85.84 669.721,84.487 675.518,82.917 668.711,80.892 680.866,79.831 	"/>
	<path fill="#FFFFFF" d="M569.549,35.512c-0.598-20.12-27.094-17.731-27.094-17.731v-0.089h-15.869v76.232l2.391-10.623l1.596,8.767
		l1.461-9.629l0.797,6.308l1.195-6.174l1.924,15.868l1.727-15.868l1.195,3.983l1.461-3.72l2.125,8.168V57.083
		C572.081,54.965,569.549,35.512,569.549,35.512z M554.112,35.512c0,5.604-7.084,7.816-11.654,8.663V29.813
		C554.399,29.739,554.112,35.512,554.112,35.512z"/>
	<path fill="#FFFFFF" d="M620.124,78.165l3.111,2.76l-0.713-3.93l6.104,5.828L609.821,52.42
		c11.688-6.371,10.279-17.257,10.279-17.257c-0.529-17.944-21.648-17.985-26.215-17.782v-0.038h-15.869v75.732l1.658-11.885
		l1.793,7.172l0.934-5.447l1.656,15.873l1.264-16.137l1.063,5.113l0.93-3.785l1.658,12.352l1.527-11.623l0.797,5.646l1.064-2.988
		l1.525,4.98V56.831l22.781,36.826l-3.557-10.293l5.967,6.615l-3.824-8.957l3.996,4.945l-2.232-5.881l9.986,12.483L620.124,78.165z
		 M604.665,35.164c0,5.256-6.23,7.526-10.777,8.488V29.474C604.924,29.684,604.665,35.164,604.665,35.164z"/>
	<path fill="#FFFFFF" d="M729.917,23.152c0,0-26.563-14.609-30.281,5.312c0,0-4.779,9.032,9.564,27.361
		c0,0,13.811,17.264,1.594,15.141c0,0-11.953-1.064-19.125-15.406c0,0,2.656,9.826,7.172,14.342l-7.436-6.904
		c0,0,1.061,3.451,6.902,9.295l-9.029-4.781l3.984,3.984c0,0-3.32-0.396-8.768-5.842c0,0,2.123,6.377,10.492,10.492l-8.369-4.115
		l4.781,4.781l-8.498-4.781c0,0,26.695,30.943,45.688,11.951c0,0,11.688-11.953-3.453-31.344c0,0-16.732-20.452-7.703-20.452
		c0,0,7.57,0.131,16.734,13.015l-4.516-8.499c0,0,8.5,3.72,11.953,9.562c0,0-6.771-11.553-11.688-14.077l7.969,5.578l-3.986-6.375
		l4.914,4.914l-2.523-6.243l5.049,2.391C741.338,32.448,733.575,24.889,729.917,23.152z"/>
	<path fill="#FFFFFF" d="M787.469,23.152c0,0-26.563-14.609-30.277,5.312c0,0-4.781,9.032,9.561,27.361
		c0,0,13.813,17.264,1.594,15.141c0,0-11.951-1.064-19.123-15.406c0,0,2.656,9.826,7.172,14.342l-7.438-6.904
		c0,0,1.063,3.451,6.906,9.295l-9.031-4.781l3.984,3.984c0,0-3.32-0.396-8.768-5.842c0,0,2.123,6.377,10.49,10.492l-8.367-4.115
		l4.781,4.781l-8.498-4.781c0,0,26.693,30.943,45.686,11.951c0,0,11.689-11.953-3.451-31.344c0,0-16.734-20.452-7.701-20.452
		c0,0,7.566,0.131,16.73,13.015l-4.514-8.499c0,0,8.5,3.72,11.953,9.562c0,0-6.773-11.553-11.688-14.077l7.969,5.578l-3.986-6.375
		l4.914,4.914l-2.523-6.243l5.047,2.391C798.891,32.448,791.127,24.889,787.469,23.152z"/>
</g>
</svg>
